# File created by Blade
# Date/Time:  Mon Sep 22 16:09:39 2014
# Frame Rate: 120.000 fps
#------------------------------------------------------
:FULLY-SPECIFIED
:DEGREES
1866
root 2.592685 36.985222 2.479650 2.053320 -2.183872 1.791151
RightUpLeg 6.252162 -5.965899 -2.646691
RightLeg -5.035390 -0.000000 0.000000
RightFoot -13.733861 -16.537609 15.954785
RightToeBase 14.570773 -0.000000 -0.000000
LeftUpLeg 3.798664 0.714178 1.634136
LeftLeg -2.138225 -0.000000 0.000000
LeftFoot -10.008917 13.055988 -16.903941
LeftToeBase 9.657683 -0.000000 -0.000000
Spine -1.875037 -7.662351 -0.296306
RightShoulder -1.709157 -22.004083 -2.005804
RightArm 19.881134 35.408688 94.220015
RightForeArm 90.206789 -0.000000 80.357196
RightHand 15.804092 -0.000000 7.609409
RightHandThumb1 -24.326973 -0.000000 -32.862282
LeftShoulder -23.600693 38.619348 -3.891580
LeftArm 41.429993 16.689508 -65.649065
LeftForeArm 19.060918 -0.000000 25.644959
LeftHand -13.661068 -0.000000 -9.924030
LeftHandThumb1 -26.253704 0.000000 33.147579
Head 10.611489 3.936621 6.470922
1867
root 2.589931 36.984813 2.477169 2.049799 -2.168147 1.778412
RightUpLeg 6.257414 -6.000266 -2.630985
RightLeg -5.039289 -0.000000 0.000000
RightFoot -13.711401 -16.514591 15.930983
RightToeBase 14.552473 -0.000000 -0.000000
LeftUpLeg 3.797423 0.696238 1.650772
LeftLeg -2.139723 -0.000000 0.000000
LeftFoot -10.013108 13.061815 -16.889315
LeftToeBase 9.633914 -0.000000 -0.000000
Spine -1.853392 -7.689790 -0.274117
RightShoulder -1.699156 -21.926168 -1.972907
RightArm 20.079274 35.559860 94.417359
RightForeArm 90.035999 -0.000000 80.168000
RightHand 15.609733 -0.000000 7.860226
RightHandThumb1 -24.326973 -0.000000 -32.862282
LeftShoulder -23.561273 38.622657 -3.832987
LeftArm 41.461100 16.817184 -65.499182
LeftForeArm 19.100825 -0.000000 25.659925
LeftHand -13.583100 -0.000000 -10.124725
LeftHandThumb1 -26.253704 0.000000 33.147579
Head 10.597005 3.939963 6.543132
1868
root 2.587134 36.984372 2.474742 2.046731 -2.159418 1.774607
RightUpLeg 6.264028 -6.041463 -2.625604
RightLeg -5.052216 -0.000000 0.000000
RightFoot -13.688546 -16.483714 15.919203
RightToeBase 14.509581 -0.000000 -0.000000
LeftUpLeg 3.794694 0.696657 1.658813
LeftLeg -2.136971 -0.000000 0.000000
LeftFoot -10.017088 13.059249 -16.900653
LeftToeBase 9.660477 -0.000000 -0.000000
Spine -1.830854 -7.698554 -0.275797
RightShoulder -1.685468 -21.845039 -1.951889
RightArm 20.255254 35.701278 94.586103
RightForeArm 89.889470 -0.000000 79.929722
RightHand 15.598074 0.000000 8.051883
RightHandThumb1 -24.326973 -0.000000 -32.862282
LeftShoulder -23.526635 38.636157 -3.769523
LeftArm 41.510290 16.933313 -65.352316
LeftForeArm 19.178603 -0.000000 25.683502
LeftHand -13.531024 -0.000000 -10.274550
LeftHandThumb1 -26.253704 0.000000 33.147579
Head 10.576401 3.866364 6.612246
1869
root 2.584008 36.983670 2.472094 2.047145 -2.150504 1.762150
RightUpLeg 6.270978 -6.071313 -2.609121
RightLeg -5.072298 -0.000000 0.000000
RightFoot -13.661492 -16.468811 15.912612
RightToeBase 14.489574 -0.000000 -0.000000
LeftUpLeg 3.794534 0.675375 1.675197
LeftLeg -2.144480 -0.000000 0.000000
LeftFoot -10.024508 13.079995 -16.878943
LeftToeBase 9.669223 -0.000000 -0.000000
Spine -1.817335 -7.695020 -0.259476
RightShoulder -1.673473 -21.806933 -1.951520
RightArm 20.448941 35.854481 94.783080
RightForeArm 89.750624 0.000000 79.729186
RightHand 15.514622 -0.000000 8.141799
RightHandThumb1 -24.326973 -0.000000 -32.862282
LeftShoulder -23.490577 38.654496 -3.716133
LeftArm 41.578916 17.043800 -65.190869
LeftForeArm 19.172684 -0.000000 25.701064
LeftHand -13.439586 -0.000000 -10.343765
LeftHandThumb1 -26.253704 0.000000 33.147579
Head 10.561575 3.818811 6.684302
1870
root 2.583170 36.983165 2.472139 2.032643 -2.149899 1.762589
RightUpLeg 6.293274 -6.097442 -2.610000
RightLeg -5.091829 -0.000000 0.000000
RightFoot -13.647781 -16.448798 15.921941
RightToeBase 14.447344 -0.000000 -0.000000
LeftUpLeg 3.814964 0.684116 1.675769
LeftLeg -2.158649 -0.000000 0.000000
LeftFoot -10.015997 13.077105 -16.890644
LeftToeBase 9.649987 -0.000000 -0.000000
Spine -1.792733 -7.675757 -0.256675
RightShoulder -1.656476 -21.748902 -1.957748
RightArm 20.594710 36.024465 94.962773
RightForeArm 89.667921 -0.000000 79.557332
RightHand 15.334127 -0.000000 8.189798
RightHandThumb1 -24.326973 -0.000000 -32.862282
LeftShoulder -23.443738 38.641649 -3.668258
LeftArm 41.620836 17.119601 -65.040848
LeftForeArm 19.276645 0.000000 25.734045
LeftHand -13.476451 -0.000000 -10.592879
LeftHandThumb1 -26.253704 0.000000 33.147579
Head 10.551328 3.755808 6.741073
1871
root 2.583051 36.983420 2.469381 2.044900 -2.149205 1.767715
RightUpLeg 6.283313 -6.141782 -2.616271
RightLeg -5.104907 -0.000000 0.000000
RightFoot -13.627159 -16.416709 15.882352
RightToeBase 14.517455 -0.000000 -0.000000
LeftUpLeg 3.798797 0.670288 1.669421
LeftLeg -2.159947 -0.000000 0.000000
LeftFoot -10.016468 13.095602 -16.876207
LeftToeBase 9.671030 -0.000000 -0.000000
Spine -1.795966 -7.653669 -0.248697
RightShoulder -1.656335 -21.760499 -1.975358
RightArm 20.806593 36.150885 95.173775
RightForeArm 89.612174 -0.000000 79.393396
RightHand 15.263838 -0.000000 8.166689
RightHandThumb1 -24.326973 -0.000000 -32.862282
LeftShoulder -23.413872 38.631489 -3.645888
LeftArm 41.659611 17.188513 -64.874990
LeftForeArm 19.340540 -0.000000 25.784051
LeftHand -13.436014 -0.000000 -10.614040
LeftHandThumb1 -26.253704 0.000000 33.147579
Head 10.534742 3.727286 6.799045
1872
root 2.580969 36.983895 2.468168 2.057417 -2.147302 1.759872
RightUpLeg 6.272530 -6.161766 -2.604785
RightLeg -5.111144 -0.000000 0.000000
RightFoot -13.622636 -16.396027 15.903322
RightToeBase 14.514015 -0.000000 -0.000000
LeftUpLeg 3.787267 0.666290 1.680745
LeftLeg -2.166410 -0.000000 0.000000
LeftFoot -10.006580 13.095031 -16.881625
LeftToeBase 9.666318 -0.000000 -0.000000
Spine -1.806992 -7.619258 -0.227091
RightShoulder -1.641861 -21.769882 -1.993410
RightArm 20.984786 36.329029 95.386863
RightForeArm 89.530895 0.000000 79.287553
RightHand 15.144896 -0.000000 8.092331
RightHandThumb1 -24.326973 -0.000000 -32.862282
LeftShoulder -23.371988 38.613005 -3.620291
LeftArm 41.680160 17.212295 -64.758961
LeftForeArm 19.461064 -0.000000 25.834836
LeftHand -13.463353 -0.000000 -10.653318
LeftHandThumb1 -26.253704 0.000000 33.147579
Head 10.528780 3.646651 6.832426
